# xmcd
#
# Track frame offsets:
#	150
#	17120
#	40449
#	54544
#	73275
#	96492
#	112931
#	125253
#	141516
#	157947
#	175782
#	195736
#	211402
#	236617
#
# Disc length: 3261 seconds
#
# Revision: 1
# Processed by: cddbd v1.5.2PL0 Copyright (c) Steve Scherf et al.
# Submitted via: audiograbber 1.83.01
#
DISCID=cc0cbb0e
DTITLE=Zachariah and The Lobos Riders - Alcoholiday
DYEAR=2007
DGENRE=Country
TTITLE0=Alcoholiday
TTITLE1=I Ain't Gonna Do (Walk Away)
TTITLE2=Lonely
TTITLE3=I Seem To Dream In Westerns
TTITLE4=Suenos Polces
TTITLE5=Always Another Train
TTITLE6=Honky Tonk Barstool
TTITLE7=Hell and Back
TTITLE8=Dock Ellis
TTITLE9=Telluride
TTITLE10=Medicine Man
TTITLE11=Now Were Even
TTITLE12=Paul Revere (Live)
TTITLE13=Lyrical Trick Roper
EXTD=
EXTT0=
EXTT1=
EXTT2=
EXTT3=
EXTT4=
EXTT5=
EXTT6=
EXTT7=
EXTT8=
EXTT9=
EXTT10=
EXTT11=
EXTT12=
EXTT13=
PLAYORDER=
